<svg width="144" height="32" viewBox="0 0 144 32" fill="none" xmlns="http://www.w3.org/2000/svg">
<path d="M122.462 6.61572H120.543V25.3912H122.462V6.61572Z" fill="#1F3696"/>
<path d="M83.3421 8.45898H81.4199V25.3914H83.3421V16.3828H92.6019V14.4624H83.3421V8.45898Z" fill="#1F3696"/>
<path d="M92.5983 6.61572H81.4199V8.45887H92.5983V6.61572Z" fill="#A53D2E"/>
<path d="M105.701 6.61572H104.183L97.2808 25.3912H99.2803L100.742 21.5294C101.211 20.3194 101.652 19.1281 102.067 17.9555L102.77 16.0351C103.156 14.9819 103.532 13.9637 103.905 12.9807C104.256 12.089 104.587 11.1622 104.938 10.2072C105.289 11.1902 105.641 12.1171 105.992 12.9948C106.355 13.952 106.736 14.9655 107.134 16.0351L107.837 17.9555L110.603 25.3912H112.616L105.701 6.61572Z" fill="#1F3696"/>
<path d="M102.766 16.0247L102.067 17.945H107.82L107.117 16.0247H102.766Z" fill="#FAD400"/>
<path d="M143.666 25.0086C142.408 23.5809 141.086 22.0829 139.699 20.5148C138.436 19.0848 137.219 17.7062 136.048 16.3791H137.741C138.471 16.383 139.196 16.2521 139.878 15.993C140.523 15.7509 141.118 15.3941 141.635 14.9397C142.126 14.5019 142.526 13.9723 142.812 13.381C143.101 12.7838 143.252 12.1291 143.252 11.4658C143.252 10.8025 143.101 10.1478 142.812 9.55072C142.529 8.96048 142.127 8.43471 141.632 8.00599C141.113 7.56206 140.517 7.21591 139.875 6.98436C139.192 6.73266 138.469 6.60543 137.741 6.6087H132.182V17.0146H134.104L141.505 25.3912H144L143.666 25.0086ZM134.097 8.45887H137.685C138.627 8.45498 139.54 8.779 140.268 9.37518C140.59 9.63393 140.855 9.95523 141.048 10.3196C141.233 10.6715 141.328 11.0633 141.326 11.4606C141.33 11.8659 141.235 12.2661 141.048 12.6261C140.856 12.9895 140.596 13.3125 140.282 13.5776C139.939 13.8594 139.549 14.0782 139.13 14.2235C138.679 14.385 138.203 14.4658 137.724 14.4623H134.097V8.45887Z" fill="#1F3696"/>
<path d="M134.097 17.0215H132.175V25.3911H134.097V17.0215Z" fill="#A53D2E"/>
<path d="M23.3306 25.3807H34.509V23.4603H25.2528V16.3721V14.4517V8.47285H34.509V6.60864H23.3306V25.3807Z" fill="#1F3696"/>
<path d="M33.1557 15.0344H25.2524V16.9548H33.1557V15.0344Z" fill="#FAD400"/>
<path d="M49.8304 8.4729H47.9082V25.3807H49.8304V8.4729Z" fill="#1F3696"/>
<path d="M55.6673 6.60864H42.022V8.47285H55.6673V6.60864Z" fill="#A53D2E"/>
<path d="M66.9336 6.60864H65.419L58.5103 25.3807H60.5133L61.9752 21.5188C62.432 20.3076 62.8748 19.114 63.3 17.9484L64.0028 16.028C64.3894 14.9701 64.7677 13.952 65.1379 12.9736C65.4752 12.0772 65.8196 11.1516 66.171 10.1966C66.5225 11.1796 66.8739 12.1065 67.2253 12.9842C67.5767 13.9426 67.9703 14.9607 68.3674 16.028L69.0702 17.9484L71.8534 25.3912H73.8564L66.9336 6.60864Z" fill="#1F3696"/>
<path d="M63.9956 16.0176L63.2998 17.938H69.0524L68.3496 16.0176H63.9956Z" fill="#FAD400"/>
<path d="M12.9179 6.60864L7.41832 10.8145L5.83696 12.0257L1.92223 15.0204V9.02755V6.60864H0V25.3807H1.92223V17.4393L7.41832 13.2334L8.99967 12.0257L12.9179 9.02755V15.0204V17.4393V25.3807H14.8366V6.60864H12.9179Z" fill="#1F3696"/>
<path d="M1.92236 6.60864V9.02755L12.9181 17.4393V15.0204L1.92236 6.60864Z" fill="#A53D2E"/>
</svg>
