<svg width="120" height="20" viewBox="0 0 120 20" fill="none" xmlns="http://www.w3.org/2000/svg">
<path d="M17.5914 17V2.45455H19.3528V15.4375H26.1142V17H17.5914ZM40.5478 9.72727C40.5478 11.2614 40.2708 12.5871 39.7168 13.7045C39.1628 14.822 38.4029 15.6837 37.437 16.2898C36.4711 16.8958 35.3678 17.1989 34.1273 17.1989C32.8868 17.1989 31.7836 16.8958 30.8176 16.2898C29.8517 15.6837 29.0918 14.822 28.5378 13.7045C27.9838 12.5871 27.7069 11.2614 27.7069 9.72727C27.7069 8.19318 27.9838 6.86742 28.5378 5.75C29.0918 4.63258 29.8517 3.77083 30.8176 3.16477C31.7836 2.55871 32.8868 2.25568 34.1273 2.25568C35.3678 2.25568 36.4711 2.55871 37.437 3.16477C38.4029 3.77083 39.1628 4.63258 39.7168 5.75C40.2708 6.86742 40.5478 8.19318 40.5478 9.72727ZM38.8432 9.72727C38.8432 8.4678 38.6325 7.40483 38.2111 6.53835C37.7944 5.67188 37.2286 5.0161 36.5137 4.57102C35.8034 4.12595 35.008 3.90341 34.1273 3.90341C33.2466 3.90341 32.4488 4.12595 31.7338 4.57102C31.0236 5.0161 30.4578 5.67188 30.0364 6.53835C29.6197 7.40483 29.4114 8.4678 29.4114 9.72727C29.4114 10.9867 29.6197 12.0497 30.0364 12.9162C30.4578 13.7827 31.0236 14.4384 31.7338 14.8835C32.4488 15.3286 33.2466 15.5511 34.1273 15.5511C35.008 15.5511 35.8034 15.3286 36.5137 14.8835C37.2286 14.4384 37.7944 13.7827 38.2111 12.9162C38.6325 12.0497 38.8432 10.9867 38.8432 9.72727ZM43.4224 17H41.5758L46.9167 2.45455H48.7349L54.0758 17H52.2292L47.8826 4.75568H47.769L43.4224 17ZM44.1042 11.3182H51.5474V12.8807H44.1042V11.3182ZM60.8301 17H56.3414V2.45455H61.0289C62.4399 2.45455 63.6473 2.74574 64.6511 3.32812C65.6549 3.90578 66.4243 4.73674 66.9593 5.82102C67.4944 6.90057 67.7619 8.19318 67.7619 9.69886C67.7619 11.214 67.492 12.5185 66.9522 13.6122C66.4125 14.7012 65.6265 15.5393 64.5943 16.1264C63.5621 16.7088 62.3074 17 60.8301 17ZM58.1028 15.4375H60.7164C61.9191 15.4375 62.9158 15.2055 63.7065 14.7415C64.4972 14.2775 65.0867 13.617 65.475 12.7599C65.8632 11.9029 66.0574 10.8826 66.0574 9.69886C66.0574 8.52462 65.8656 7.51373 65.4821 6.66619C65.0985 5.81392 64.5256 5.16051 63.7633 4.70597C63.001 4.24669 62.0517 4.01705 60.9153 4.01705H58.1028V15.4375ZM72.4778 2.45455V17H70.7164V2.45455H72.4778ZM87.5435 2.45455V17H85.839L77.9128 5.57955H77.7708V17H76.0094V2.45455H77.714L85.6685 13.9034H85.8105V2.45455H87.5435ZM101.011 7C100.855 6.52178 100.649 6.09328 100.393 5.71449C100.142 5.33097 99.8417 5.00426 99.4913 4.73438C99.1457 4.46449 98.7527 4.25852 98.3123 4.11648C97.872 3.97443 97.389 3.90341 96.8635 3.90341C96.0017 3.90341 95.2181 4.12595 94.5126 4.57102C93.8071 5.0161 93.246 5.67188 92.8294 6.53835C92.4127 7.40483 92.2044 8.4678 92.2044 9.72727C92.2044 10.9867 92.4151 12.0497 92.8365 12.9162C93.2579 13.7827 93.8284 14.4384 94.5481 14.8835C95.2678 15.3286 96.0775 15.5511 96.9771 15.5511C97.8104 15.5511 98.5443 15.3736 99.1788 15.0185C99.818 14.6586 100.315 14.152 100.67 13.4986C101.03 12.8404 101.21 12.0663 101.21 11.1761L101.75 11.2898H97.3748V9.72727H102.915V11.2898C102.915 12.4877 102.659 13.5294 102.148 14.4148C101.641 15.3002 100.94 15.9867 100.045 16.4744C99.1551 16.9574 98.1324 17.1989 96.9771 17.1989C95.6892 17.1989 94.5576 16.8958 93.5822 16.2898C92.6116 15.6837 91.854 14.822 91.3095 13.7045C90.7697 12.5871 90.4998 11.2614 90.4998 9.72727C90.4998 8.5767 90.6537 7.54214 90.9615 6.62358C91.274 5.70028 91.7143 4.9143 92.2825 4.26562C92.8507 3.61695 93.523 3.11979 94.2995 2.77415C95.0761 2.4285 95.9307 2.25568 96.8635 2.25568C97.6305 2.25568 98.3455 2.37169 99.0083 2.60369C99.676 2.83097 100.27 3.1553 100.791 3.5767C101.317 3.99337 101.755 4.4929 102.105 5.07528C102.455 5.65294 102.697 6.29451 102.829 7H101.011Z" fill="black"/>
</svg>
